HIERARCHY
ROOT Hips
{
	OFFSET 0.000000 97.167313 0.000000
	CHANNELS 6 Xposition Yposition Zposition Xrotation Yrotation Zrotation
	JOINT Spine
	{
		OFFSET 0.000000 13.784798 0.064400
		CHANNELS 3 Xrotation Yrotation Zrotation
		JOINT Spine1
		{
			OFFSET 0.000000 12.037903 0.404700
			CHANNELS 3 Xrotation Yrotation Zrotation
			JOINT Spine2
			{
				OFFSET 0.000000 17.795601 0.420200
				CHANNELS 3 Xrotation Yrotation Zrotation
				JOINT Neck
				{
					OFFSET 0.000000 39.131302 11.954600
					CHANNELS 3 Xrotation Yrotation Zrotation
					JOINT Head
					{
						OFFSET 0.000000 14.456192 15.627699
						CHANNELS 3 Xrotation Yrotation Zrotation
						JOINT HeadTop_End
						{
							OFFSET 0.000000 15.703506 7.603401
							CHANNELS 3 Xrotation Yrotation Zrotation
							End Site
							{
								OFFSET 0.000000 17.447403 0.000000
							}
						}
					}
				}
				JOINT LeftShoulder
				{
					OFFSET 17.399500 24.608795 1.168800
					CHANNELS 3 Xrotation Yrotation Zrotation
					JOINT LeftArm
					{
						OFFSET 18.980635 5.765305 1.818600
						CHANNELS 3 Xrotation Yrotation Zrotation
						JOINT LeftForeArm
						{
							OFFSET 49.290169 0.000000 0.000000
							CHANNELS 3 Xrotation Yrotation Zrotation
							JOINT LeftHand
							{
								OFFSET 31.562012 0.000000 0.000000
								CHANNELS 3 Xrotation Yrotation Zrotation
								JOINT LeftHandThumb1
								{
									OFFSET 6.133995 -4.388519 7.076070
									CHANNELS 3 Xrotation Yrotation Zrotation
									JOINT LeftHandThumb2
									{
										OFFSET 6.037666 -3.485840 3.485847
										CHANNELS 3 Xrotation Yrotation Zrotation
										JOINT LeftHandThumb3
										{
											OFFSET 6.496506 -3.750763 3.750761
											CHANNELS 3 Xrotation Yrotation Zrotation
											JOINT LeftHandThumb4
											{
												OFFSET 5.616882 -3.242905 3.242910
												CHANNELS 3 Xrotation Yrotation Zrotation
												End Site
												{
													OFFSET -1.254608 7.132141 0.375429
												}
											}
										}
									}
								}
								JOINT LeftHandPinky1
								{
									OFFSET 18.920792 -0.453171 -11.426712
									CHANNELS 3 Xrotation Yrotation Zrotation
									JOINT LeftHandPinky2
									{
										OFFSET 4.919586 0.000000 0.000000
										CHANNELS 3 Xrotation Yrotation Zrotation
										JOINT LeftHandPinky3
										{
											OFFSET 5.233047 0.000000 0.000000
											CHANNELS 3 Xrotation Yrotation Zrotation
											JOINT LeftHandPinky4
											{
												OFFSET 5.571716 0.000000 0.000000
												CHANNELS 3 Xrotation Yrotation Zrotation
												End Site
												{
													OFFSET -3.459808 4.342407 -0.466164
												}
											}
										}
									}
								}
								JOINT LeftHandRing1
								{
									OFFSET 22.726120 -0.094986 -6.500475
									CHANNELS 3 Xrotation Yrotation Zrotation
									JOINT LeftHandRing2
									{
										OFFSET 6.408615 0.000000 0.000000
										CHANNELS 3 Xrotation Yrotation Zrotation
										JOINT LeftHandRing3
										{
											OFFSET 6.150223 0.000000 0.000000
											CHANNELS 3 Xrotation Yrotation Zrotation
											JOINT LeftHandRing4
											{
												OFFSET 6.145386 0.000000 0.000000
												CHANNELS 3 Xrotation Yrotation Zrotation
												End Site
												{
													OFFSET -3.671402 4.923981 -0.202372
												}
											}
										}
									}
								}
								JOINT LeftHandMiddle1
								{
									OFFSET 23.373947 0.000000 0.000001
									CHANNELS 3 Xrotation Yrotation Zrotation
									JOINT LeftHandMiddle2
									{
										OFFSET 6.996567 0.000000 0.000000
										CHANNELS 3 Xrotation Yrotation Zrotation
										JOINT LeftHandMiddle3
										{
											OFFSET 7.015945 0.000000 0.000000
											CHANNELS 3 Xrotation Yrotation Zrotation
											JOINT LeftHandMiddle4
											{
												OFFSET 7.721573 0.000000 0.000000
												CHANNELS 3 Xrotation Yrotation Zrotation
												End Site
												{
													OFFSET -4.651108 6.158463 0.251582
												}
											}
										}
									}
								}
								JOINT LeftHandIndex1
								{
									OFFSET 21.310577 -0.490082 6.209344
									CHANNELS 3 Xrotation Yrotation Zrotation
									JOINT LeftHandIndex2
									{
										OFFSET 7.536453 0.000000 0.000000
										CHANNELS 3 Xrotation Yrotation Zrotation
										JOINT LeftHandIndex3
										{
											OFFSET 7.512344 0.000000 0.000000
											CHANNELS 3 Xrotation Yrotation Zrotation
											JOINT LeftHandIndex4
											{
												OFFSET 10.212402 0.000000 0.000001
												CHANNELS 3 Xrotation Yrotation Zrotation
												End Site
												{
													OFFSET -5.180801 8.690506 1.388433
												}
											}
										}
									}
								}
							}
						}
					}
				}
				JOINT RightShoulder
				{
					OFFSET -17.399500 24.608795 1.168800
					CHANNELS 3 Xrotation Yrotation Zrotation
					JOINT RightArm
					{
						OFFSET -18.980635 5.765305 1.818600
						CHANNELS 3 Xrotation Yrotation Zrotation
						JOINT RightForeArm
						{
							OFFSET -49.290169 0.000000 0.000000
							CHANNELS 3 Xrotation Yrotation Zrotation
							JOINT RightHand
							{
								OFFSET -31.562012 0.000000 0.000000
								CHANNELS 3 Xrotation Yrotation Zrotation
								JOINT RightHandThumb1
								{
									OFFSET -6.133995 -4.388519 7.076070
									CHANNELS 3 Xrotation Yrotation Zrotation
									JOINT RightHandThumb2
									{
										OFFSET -6.037666 -3.485840 3.485847
										CHANNELS 3 Xrotation Yrotation Zrotation
										JOINT RightHandThumb3
										{
											OFFSET -6.496506 -3.750763 3.750761
											CHANNELS 3 Xrotation Yrotation Zrotation
											JOINT RightHandThumb4
											{
												OFFSET -5.616882 -3.242905 3.242910
												CHANNELS 3 Xrotation Yrotation Zrotation
												End Site
												{
													OFFSET 1.254608 7.132141 0.375429
												}
											}
										}
									}
								}
								JOINT RightHandIndex1
								{
									OFFSET -21.310577 -0.490082 6.209344
									CHANNELS 3 Xrotation Yrotation Zrotation
									JOINT RightHandIndex2
									{
										OFFSET -7.536453 0.000000 0.000000
										CHANNELS 3 Xrotation Yrotation Zrotation
										JOINT RightHandIndex3
										{
											OFFSET -7.512344 0.000000 0.000000
											CHANNELS 3 Xrotation Yrotation Zrotation
											JOINT RightHandIndex4
											{
												OFFSET -10.212402 0.000000 0.000001
												CHANNELS 3 Xrotation Yrotation Zrotation
												End Site
												{
													OFFSET 5.180801 8.690506 1.388433
												}
											}
										}
									}
								}
								JOINT RightHandMiddle1
								{
									OFFSET -23.373947 0.000000 0.000001
									CHANNELS 3 Xrotation Yrotation Zrotation
									JOINT RightHandMiddle2
									{
										OFFSET -6.996567 0.000000 0.000000
										CHANNELS 3 Xrotation Yrotation Zrotation
										JOINT RightHandMiddle3
										{
											OFFSET -7.015945 0.000000 0.000000
											CHANNELS 3 Xrotation Yrotation Zrotation
											JOINT RightHandMiddle4
											{
												OFFSET -7.721573 0.000000 0.000000
												CHANNELS 3 Xrotation Yrotation Zrotation
												End Site
												{
													OFFSET 4.651108 6.158463 0.251582
												}
											}
										}
									}
								}
								JOINT RightHandRing1
								{
									OFFSET -22.726120 -0.094986 -6.500475
									CHANNELS 3 Xrotation Yrotation Zrotation
									JOINT RightHandRing2
									{
										OFFSET -6.408615 0.000000 0.000000
										CHANNELS 3 Xrotation Yrotation Zrotation
										JOINT RightHandRing3
										{
											OFFSET -6.150223 0.000000 0.000000
											CHANNELS 3 Xrotation Yrotation Zrotation
											JOINT RightHandRing4
											{
												OFFSET -6.145386 0.000000 0.000000
												CHANNELS 3 Xrotation Yrotation Zrotation
												End Site
												{
													OFFSET 3.671402 4.923981 -0.202372
												}
											}
										}
									}
								}
								JOINT RightHandPinky1
								{
									OFFSET -18.920792 -0.453171 -11.426712
									CHANNELS 3 Xrotation Yrotation Zrotation
									JOINT RightHandPinky2
									{
										OFFSET -4.919586 0.000000 0.000000
										CHANNELS 3 Xrotation Yrotation Zrotation
										JOINT RightHandPinky3
										{
											OFFSET -5.233047 0.000000 0.000000
											CHANNELS 3 Xrotation Yrotation Zrotation
											JOINT RightHandPinky4
											{
												OFFSET -5.571716 0.000000 0.000000
												CHANNELS 3 Xrotation Yrotation Zrotation
												End Site
												{
													OFFSET 3.459808 4.342407 -0.466164
												}
											}
										}
									}
								}
							}
						}
					}
				}
			}
		}
	}
	JOINT LeftUpLeg
	{
		OFFSET 19.899099 -7.885101 -3.429500
		CHANNELS 3 Xrotation Yrotation Zrotation
		JOINT LeftLeg
		{
			OFFSET 1.745560 -36.997807 10.304700
			CHANNELS 3 Xrotation Yrotation Zrotation
			JOINT LeftFoot
			{
				OFFSET -1.745558 -29.803308 -13.615400
				CHANNELS 3 Xrotation Yrotation Zrotation
				JOINT LeftToeBase
				{
					OFFSET 1.181900 -18.539904 15.226099
					CHANNELS 3 Xrotation Yrotation Zrotation
					JOINT LeftToe_End
					{
						OFFSET -0.863701 1.402801 16.534700
						CHANNELS 3 Xrotation Yrotation Zrotation
						End Site
						{
							OFFSET 0.000000 16.616566 0.000000
						}
					}
				}
			}
		}
	}
	JOINT RightUpLeg
	{
		OFFSET -19.899099 -7.885101 -3.429500
		CHANNELS 3 Xrotation Yrotation Zrotation
		JOINT RightLeg
		{
			OFFSET -1.745560 -36.997807 10.304700
			CHANNELS 3 Xrotation Yrotation Zrotation
			JOINT RightFoot
			{
				OFFSET 1.745558 -29.803308 -13.615400
				CHANNELS 3 Xrotation Yrotation Zrotation
				JOINT RightToeBase
				{
					OFFSET -1.181900 -18.539904 15.226099
					CHANNELS 3 Xrotation Yrotation Zrotation
					JOINT RightToe_End
					{
						OFFSET 0.863701 1.402801 16.534700
						CHANNELS 3 Xrotation Yrotation Zrotation
						End Site
						{
							OFFSET 0.000000 16.616566 0.000000
						}
					}
				}
			}
		}
	}
}
MOTION
Frames: 4
Frame Time: 0.033333
1.285136 64.641426 186.024887 28.467851 -29.911540 6.666986 25.817311 1.275139 4.690402 -1.550090 -5.922395 0.445648 -1.491078 -5.808552 1.166826 -5.635649 20.653389 -2.948394 -20.270376 27.955449 -1.232604 -0.000001 0.000000 -0.000001 10.156922 -22.297472 19.024688 -28.929160 -2.173958 -6.780582 -30.934364 -52.920302 -2.767069 0.225016 3.401176 13.786835 -4.092252 -7.339062 8.290383 3.701375 20.541543 -1.512426 1.048071 2.091668 3.026619 -0.000000 -0.000000 0.000000 -5.491114 7.789635 -13.056403 0.227982 0.287834 -47.495418 0.276655 0.259562 -48.032954 0.000006 -0.000006 0.000000 6.309810 3.522190 -14.739263 0.039472 0.327407 -30.877974 0.404617 0.770956 -43.675740 0.000001 -0.000001 0.000001 8.692823 0.251196 -1.290355 0.234835 0.663008 -30.505008 0.459111 0.222172 -45.646940 -0.000003 0.000001 0.000004 13.093906 -1.447426 10.767036 -0.166549 0.304038 -31.990188 -0.127256 0.311175 -34.407761 -0.000001 0.000003 0.000002 6.108242 3.996443 9.876547 -92.468078 -37.145980 -16.307266 66.853830 138.439151 -42.152533 0.512948 14.551216 -21.199498 -3.003963 8.745923 -11.176305 2.644548 -17.996186 2.390894 4.535721 -16.648038 -9.380976 -0.000004 -0.000002 0.000002 19.600578 12.047119 -10.716323 -0.117637 -0.315152 19.101341 -0.075071 -0.298979 25.616474 0.000001 -0.000005 0.000001 4.635889 1.729992 -1.643419 0.345220 -0.463651 29.404692 0.451913 0.134986 40.962970 -0.000000 0.000001 -0.000001 -6.929207 -11.093416 5.530925 0.128000 -0.120198 29.571068 0.468455 -0.503899 35.070798 -0.000002 0.000001 -0.000005 -19.590359 -20.620783 6.154390 0.236743 -0.090897 38.181413 0.247576 -0.067911 39.669527 -0.000003 0.000003 -0.000001 -38.838751 11.265799 9.858191 93.427542 -10.215143 -8.265546 -9.536373 -7.656918 -8.079621 -14.675971 -1.319431 11.933667 -0.000000 -0.000003 -0.000000 -89.604350 3.850443 17.438989 54.951416 -15.891779 6.899248 7.951072 1.117456 -4.691146 -0.811884 -0.993324 -0.136136 0.000000 0.000001 -0.000000 
0.582871 65.934769 193.137421 28.670388 -31.079038 7.927131 27.583436 1.608652 1.983770 -1.955523 -5.612569 0.838247 -1.811456 -5.458337 1.564867 -6.579285 20.315950 -2.346138 -19.941835 28.288897 -1.522341 0.000001 0.000000 -0.000000 10.849167 -21.637435 20.001992 -30.487991 -2.946156 -6.984186 -28.917556 -52.012666 -0.526753 -0.126036 2.347469 13.772533 -4.124084 -7.390499 8.270702 3.646698 20.412195 -1.544770 0.985700 1.855826 2.916658 0.000004 0.000001 -0.000001 -5.521792 7.835098 -13.158213 0.227063 0.287075 -47.261231 0.274613 0.258609 -47.609202 -0.000001 0.000005 -0.000000 6.318994 3.530347 -14.894935 0.039405 0.326105 -30.678901 0.400280 0.771234 -43.291976 0.000001 0.000001 0.000002 8.694231 0.249815 -1.055209 0.233935 0.662557 -30.341821 0.456858 0.221460 -45.282706 0.000002 0.000001 0.000007 13.094631 -1.431797 10.973093 -0.166826 0.303866 -31.748352 -0.129382 0.309238 -33.823841 -0.000000 0.000000 -0.000004 6.807536 4.407874 9.179952 -93.085971 -37.528628 -16.309561 66.648132 138.570331 -41.791988 0.542465 15.492643 -20.142330 -2.974099 8.995170 -11.020905 2.600681 -17.854555 2.443184 4.206324 -15.732448 -9.101079 0.000002 0.000003 -0.000002 19.539042 11.884329 -11.680872 -0.117927 -0.314849 18.812354 -0.077444 -0.299284 24.978816 -0.000002 -0.000003 0.000003 4.613657 1.769518 -2.633667 0.345953 -0.461125 28.712999 0.452994 0.136434 40.472064 0.000002 0.000001 -0.000009 -6.918897 -11.036664 5.329104 0.127773 -0.114396 28.741105 0.466070 -0.503574 34.648593 0.000002 -0.000000 -0.000003 -19.555935 -20.553231 5.968491 0.235796 -0.089805 37.888098 0.244778 -0.065989 39.026154 -0.000000 -0.000001 -0.000001 -52.029526 0.898773 16.927838 100.289915 -8.207220 -12.932707 -7.607987 -8.506819 -6.216544 -10.150504 -1.015341 11.250992 0.000005 0.000000 0.000001 -83.751322 2.516659 17.119051 59.705320 -12.154997 4.573891 -1.588419 1.964353 -3.308689 -0.814462 -0.993162 -0.136143 -0.000000 -0.000001 -0.000000 
-0.029721 66.687767 200.257568 28.365972 -31.844838 9.295975 28.851873 1.525065 -0.617227 -2.080164 -5.417740 1.107222 -1.853320 -5.258335 1.827565 -7.512941 19.976806 -1.750461 -19.613361 28.619505 -1.811960 -0.000001 0.000000 0.000001 11.509285 -21.137064 20.831761 -31.910289 -3.214929 -7.017540 -27.499351 -51.289864 0.816352 -0.626560 1.347067 13.249262 -4.153797 -7.443630 8.249674 3.593983 20.286698 -1.576984 0.924815 1.626240 2.809504 0.000001 0.000001 -0.000002 -5.552887 7.869233 -13.245311 0.226098 0.286306 -47.012260 0.272428 0.257575 -47.142898 -0.000000 0.000004 -0.000002 6.327582 3.537827 -15.039960 0.039269 0.324721 -30.472595 0.395734 0.771563 -42.870724 0.000000 -0.000001 0.000001 8.695654 0.248360 -0.815258 0.233036 0.662032 -30.180331 0.454639 0.220765 -44.924029 -0.000002 0.000001 0.000001 13.095332 -1.416125 11.179152 -0.167082 0.303734 -31.513383 -0.131515 0.309823 -33.250177 -0.000001 0.000004 0.000004 7.501550 4.773150 8.663060 -93.713214 -36.849448 -16.697296 66.038920 138.977192 -41.030517 0.465402 15.475467 -19.895928 -2.945224 9.236396 -10.871400 2.555439 -17.718236 2.490508 3.884852 -14.828315 -8.810981 0.000002 0.000000 0.000002 19.479454 11.730105 -12.599554 -0.118210 -0.314598 18.526314 -0.079883 -0.299526 24.341186 -0.000002 0.000000 0.000001 4.592778 1.808435 -3.589415 0.346658 -0.458651 28.035326 0.454068 0.137724 39.958437 0.000001 0.000001 -0.000008 -6.914511 -10.975621 5.125045 0.127582 -0.108283 27.831737 0.467074 -0.503208 34.168001 -0.000002 0.000001 -0.000002 -19.539995 -20.474786 5.765232 0.234549 -0.088463 37.531131 0.240974 -0.063492 38.174648 0.000002 -0.000003 0.000004 -68.673877 -1.942639 22.053344 101.972737 -6.807011 -10.906787 0.037210 -7.730985 -3.752545 -14.026665 -1.506752 10.421995 0.000002 -0.000002 0.000002 -77.378305 2.444375 15.486330 64.985985 -8.591017 2.447093 -12.434522 2.227016 -1.282556 -0.815393 -0.992958 -0.136131 -0.000000 0.000000 -0.000000 
-0.623429 67.220604 207.120972 27.789246 -32.318410 10.840899 29.647573 1.054958 -3.091475 -1.988092 -5.286645 1.252968 -1.684583 -5.151213 1.952599 -8.436420 19.664345 -1.214494 -19.285357 28.902407 -2.058835 0.000000 0.000000 -0.000001 12.134981 -20.782498 21.508744 -33.015659 -2.968705 -6.887303 -26.693240 -50.984890 1.358647 -1.232544 0.457288 12.392929 -4.180696 -7.496392 8.229657 3.546555 20.168466 -1.607424 0.866049 1.417256 2.709592 0.000001 -0.000001 -0.000002 -5.580782 7.901194 -13.327589 0.225173 0.285584 -46.778060 0.270244 0.256515 -46.685118 0.000001 0.000002 -0.000002 6.336057 3.545197 -15.183379 0.039166 0.323446 -30.280824 0.391659 0.771833 -42.468299 -0.000001 -0.000001 0.000002 8.696942 0.247049 -0.599339 0.232179 0.661465 -30.030402 0.452660 0.220107 -44.604318 -0.000000 -0.000000 0.000004 13.095991 -1.401743 11.368759 -0.167303 0.303599 -31.295691 -0.133477 0.310282 -32.717439 -0.000000 -0.000000 0.000001 8.255878 4.925307 7.457459 -94.302325 -37.391778 -17.036336 64.605844 139.605064 -39.842812 0.351093 15.055178 -20.028186 -2.918396 9.461286 -10.732665 2.514118 -17.593638 2.533765 3.590274 -13.985559 -8.526062 0.000000 0.000006 -0.000001 19.423118 11.587000 -13.456943 -0.118450 -0.314398 18.261351 -0.082128 -0.299714 23.751245 -0.000001 0.000001 -0.000003 4.573470 1.845984 -4.494615 0.345468 -0.456466 27.413729 0.453247 0.138910 39.467586 0.000003 0.000001 -0.000002 -6.910229 -10.914860 4.933241 0.127471 -0.102290 26.938159 0.468135 -0.502779 33.687446 0.000001 0.000001 -0.000003 -19.525501 -20.403068 5.583290 0.233365 -0.087065 37.165064 0.236840 -0.060759 37.271205 0.000001 -0.000002 0.000007 -81.595503 -5.842490 27.213622 97.744515 -4.522966 -10.593460 7.958376 -9.133547 -1.606595 -11.837385 -0.032680 4.802481 -0.000001 -0.000001 0.000002 -70.329720 4.566165 12.413047 69.196831 -6.000847 1.593064 -22.983920 2.302733 0.799598 -0.815194 -0.992805 -0.136118 -0.000000 -0.000001 0.000000 
